<svg xmlns="http://www.w3.org/2000/svg" viewBox="32 64 448 448">
  <defs>
    <filter id="shadow" x="-20%" y="-20%" width="140%" height="140%">
      <feDropShadow dx="0" dy="4" stdDeviation="4" flood-color="#000" flood-opacity="0.25"/>
    </filter>
  </defs>
  
  <!-- Main Body -->
  <rect x="64" y="96" width="384" height="360" rx="48" fill="#f6f4ef" filter="url(#shadow)" />
  
  <!-- Bottom Grip Area -->
  <path d="M64 340 H448 V408 A48 48 0 0 1 400 456 H112 A48 48 0 0 1 64 408 Z" fill="#e6e4df" />

  <!-- Ejection Slot -->
  <rect x="136" y="128" width="240" height="24" rx="12" fill="#222" />
  
  <!-- Rainbow Stripes -->
<g transform="translate(0, 210)">   
  <rect x="180" y="-20" width="152" height="4" fill="#e63946" />
  <rect x="180" y="-16" width="152" height="4" fill="#f4a261" />
  <rect x="180" y="-12"  width="152" height="4" fill="#e9c46a" />
  <rect x="180" y="-8"  width="152" height="4" fill="#2a9d8f" />
  <rect x="180" y="-4" width="152" height="4" fill="#264653" />
</g>

  <!-- Viewfinder -->
  <rect x="96" y="180" width="64" height="48" rx="8" fill="#222" />
  <rect x="108" y="190" width="40" height="28" rx="4" fill="#444" />
  
  <!-- Flash -->
  <rect x="352" y="180" width="64" height="48" rx="8" fill="#ddd" />
  <rect x="364" y="190" width="40" height="28" rx="4" fill="#fff" opacity="0.6" />

  <!-- Lens Assembly -->
  <circle cx="256" cy="320" r="96" fill="#1a1a1a" />
  <circle cx="256" cy="320" r="80" fill="#111" stroke="#333" stroke-width="6" />
  <circle cx="256" cy="320" r="32" fill="#000" />
  <circle cx="270" cy="306" r="12" fill="rgba(255,255,255,0.15)" />

  <!-- Shutter Button -->
  <circle cx="400" cy="380" r="36" fill="#d62828" filter="url(#shadow)" />
  <circle cx="400" cy="380" r="28" fill="none" stroke="rgba(0,0,0,0.1)" stroke-width="2" />
</svg>